<svg xmlns="http://www.w3.org/2000/svg" width="1920" height="966" fill="none" viewBox="0 0 1920 966">
  <path fill="#284B63" fill-rule="evenodd" d="M1920 751.541l-53-35.433c-54-35.432-160-108.162-267-89.513-107 18.648-213 124.946-320 89.513-107-35.432-213-214.459-320-322.622-107-106.297-213-143.594-320-54.081-107 89.514-213 305.838-320 430.784C213 895.135 107 930.568 53 949.216L0 966V0h1920v751.541z" clip-rule="evenodd"/>
  <path fill="#2B6C99" fill-rule="evenodd" d="M1920 113.128l-52.8 150.838c-54.4 150.838-160 452.514-267.2 565.642-107.2 113.129-212.8 37.71-320-113.128-107.2-150.838-212.8-377.095-320-395.949-107.2-18.855-212.8 169.692-320 207.402-107.2 37.709-212.8-75.419-320-169.693-107.2-94.274-212.8-169.693-267.2-207.402L0 113.128V0h1920v113.128z" clip-rule="evenodd"/>
  <path fill="#2371A6" fill-rule="evenodd" d="M0 218.742l80-36.457c80-36.457 240-109.371 400-72.914 160 36.457 320 182.284 480 346.341 160 164.056 320 346.341 480 328.112 160-18.228 320-236.97 400-346.341l80-109.371V0H0v218.742z" clip-rule="evenodd"/>
</svg>
