<?xml version="1.0" encoding="utf-8"?><svg xmlns="http://www.w3.org/2000/svg" xmlns:xlink="http://www.w3.org/1999/xlink" width="1920" height="1080" preserveAspectRatio="xMidYMid" viewBox="0 0 1920 1080" style="z-index:1;margin-right:-2px;display:block;background-repeat-y:initial;background-repeat-x:initial;animation-play-state:paused" ><g transform="" style="animation-play-state:paused" ><linearGradient id="lg-0.5518966783566597" x1="0" x2="1" y1="0" y2="0" style="animation-play-state:paused" ><stop stop-color="#02002a" offset="0" style="animation-play-state:paused" ></stop>

  
<stop stop-color="#1c3a87" offset="1" style="animation-play-state:paused" ></stop></linearGradient>
<path d="M 0 0 L 0 989.877 Q 192 887.154 384 853.609 T 768 796.552 T 1152 713.634 T 1536 542.855 T 1920 466.257 L 1920 0 Z" fill="url(#lg-0.5518966783566597)" opacity="0.4" style="opacity:0.4;animation-play-state:paused" ></path>
<path d="M 0 0 L 0 994.63 Q 192 879.821 384 832.354 T 768 765.457 T 1152 682.523 T 1536 510.79 T 1920 476.037 L 1920 0 Z" fill="url(#lg-0.5518966783566597)" opacity="0.4" style="opacity:0.4;animation-play-state:paused" ></path>
<path d="M 0 0 L 0 975.034 Q 192 819.609 384 802.178 T 768 705.199 T 1152 615.058 T 1536 596.114 T 1920 521.085 L 1920 0 Z" fill="url(#lg-0.5518966783566597)" opacity="0.4" style="opacity:0.4;animation-play-state:paused" ></path>
<path d="M 0 0 L 0 1009.62 Q 192 926.859 384 905.902 T 768 730.618 T 1152 729.558 T 1536 565.417 T 1920 440.46 L 1920 0 Z" fill="url(#lg-0.5518966783566597)" opacity="0.4" style="opacity:0.4;animation-play-state:paused" ></path>
<path d="M 0 0 L 0 960.841 Q 192 836.556 384 811.285 T 768 790.113 T 1152 672.621 T 1536 557.58 T 1920 436.198 L 1920 0 Z" fill="url(#lg-0.5518966783566597)" opacity="0.4" style="opacity:0.4;animation-play-state:paused" ></path></g></svg>