<svg xmlns="http://www.w3.org/2000/svg" width="1920" height="1315" fill="none" viewBox="0 0 1920 1315">
  <path fill="#284B63" fill-rule="evenodd" d="M1920 1023.06l-53-48.234c-54-48.233-160-147.239-267-121.853-107 25.386-213 170.087-320 121.853-107-48.233-213-291.94-320-439.179-107-144.701-213-195.473-320-73.62C533 583.88 427 878.359 320 1048.45c-107 170.08-213 218.32-267 243.7L0 1315V0h1920v1023.06z" clip-rule="evenodd"/>
  <path fill="#284B63" stroke="#284B63" d="M721 722.161c-125.6-47.373-324 203.512-407.5 334.879l-23-784.103L742 162.673l799.5 402.94c-59.83 124.785-184.7 382.249-205.5 413.831-26 39.476-458-198.067-615-257.283z"/>
</svg>
