<?xml version="1.0" standalone="no"?><svg xmlns="http://www.w3.org/2000/svg" viewBox="0 0 1440 320"><path fill="#0099ff" fill-opacity="1" d="M0,256L30,245.3C60,235,120,213,180,192C240,171,300,149,360,154.7C420,160,480,192,540,202.7C600,213,660,203,720,218.7C780,235,840,277,900,261.3C960,245,1020,171,1080,138.7C1140,107,1200,117,1260,106.7C1320,96,1380,64,1410,48L1440,32L1440,0L1410,0C1380,0,1320,0,1260,0C1200,0,1140,0,1080,0C1020,0,960,0,900,0C840,0,780,0,720,0C660,0,600,0,540,0C480,0,420,0,360,0C300,0,240,0,180,0C120,0,60,0,30,0L0,0Z"></path></svg>